# xmcd
#
# Track frame offsets: 
#        150
#        16416
#        35402
#        53143
#        68440
#        81338
#        100732
#        118024
#        141227
#        159682
#        181564
#        198706
#        216621
#        234810
#        262143
#        289898
#        309434
#        330624
#
# Disc length: 4601 seconds
#
# Revision: 8
# Processed by: cddbd v1.5.2PL0 Copyright (c) Steve Scherf et al.
# Submitted via: ExactAudioCopy v1.0b3
#
DISCID=0511f712
DTITLE=山口百恵 - GOLDEN☆BEST 山口百恵 コンプリート・シングルコレクション (Disc02)
DYEAR=2009
DGENRE=JPop
TTITLE0=秋桜
TTITLE1=赤い絆 (レッド・センセーション)
TTITLE2=乙女座 宮
TTITLE3=プレイバック Part 2
TTITLE4=絶体絶命
TTITLE5=いい日旅立ち
TTITLE6=美・サイレント
TTITLE7=曼珠沙華
TTITLE8=愛の嵐
TTITLE9=しなやかに歌って -80年代に向って- 
TTITLE10=愛染橋
TTITLE11=謝肉祭
TTITLE12=ロックンロール・ウィドウ
TTITLE13=さよならの向う側
TTITLE14=一恵
TTITLE15=あなたへの子守唄
TTITLE16=美・サイレント (リアレンジ)
TTITLE17=惜春通り (リアレンジ)
EXTD=YEAR: 2009
EXTT0=
EXTT1=
EXTT2=
EXTT3=
EXTT4=
EXTT5=
EXTT6=
EXTT7=
EXTT8=
EXTT9=
EXTT10=
EXTT11=
EXTT12=
EXTT13=
EXTT14=
EXTT15=
EXTT16=
EXTT17=
PLAYORDER=
